<?xml version="1.0" encoding="UTF-8"?>
<svg width="128" height="128" viewBox="0 0 128 128" xmlns="http://www.w3.org/2000/svg">
  <defs>
    <linearGradient id="themeGradient" x1="0%" y1="0%" x2="100%" y2="100%">
      <stop offset="0%" style="stop-color:#007ACC;stop-opacity:1" />
      <stop offset="50%" style="stop-color:#4EC9B0;stop-opacity:1" />
      <stop offset="100%" style="stop-color:#C586C0;stop-opacity:1" />
    </linearGradient>
  </defs>
  <rect width="128" height="128" rx="16" fill="url(#themeGradient)"/>
  
  <!-- Paint bucket icon -->
  <g transform="translate(24, 24)">
    <!-- Bucket -->
    <path d="M15 25 L65 25 L62 65 L18 65 Z" fill="white" opacity="0.9"/>
    <path d="M15 25 L65 25 L62 28 L18 28 Z" fill="white"/>
    
    <!-- Handle -->
    <ellipse cx="70" cy="20" rx="8" ry="4" fill="white" opacity="0.9"/>
    <rect x="62" y="18" width="16" height="4" fill="white" opacity="0.9"/>
    
    <!-- Paint drops -->
    <circle cx="35" cy="45" r="3" fill="#FFD700" opacity="0.8"/>
    <circle cx="45" cy="50" r="2.5" fill="#FF6B6B" opacity="0.8"/>
    <circle cx="25" cy="55" r="2" fill="#4ECDC4" opacity="0.8"/>
    
    <!-- Brush -->
    <rect x="8" y="8" width="3" height="20" fill="white" opacity="0.9"/>
    <polygon points="8,8 11,8 13,4 6,4" fill="white"/>
    <rect x="6" y="4" width="7" height="2" fill="#8B4513"/>
  </g>
</svg>
